<svg width="1024" height="1024" viewBox="0 0 1024 1024" fill="none" xmlns="http://www.w3.org/2000/svg">
  <defs>
    <linearGradient id="bgB" x1="118" y1="108" x2="892" y2="922" gradientUnits="userSpaceOnUse">
      <stop stop-color="#111827"/>
      <stop offset="0.48" stop-color="#14243C"/>
      <stop offset="1" stop-color="#0A121F"/>
    </linearGradient>
    <radialGradient id="spotB" cx="0" cy="0" r="1" gradientUnits="userSpaceOnUse" gradientTransform="translate(512 282) rotate(90) scale(492 462)">
      <stop stop-color="#4DE6D6" stop-opacity="0.24"/>
      <stop offset="1" stop-color="#4DE6D6" stop-opacity="0"/>
    </radialGradient>
    <linearGradient id="tileB" x1="334" y1="254" x2="690" y2="746" gradientUnits="userSpaceOnUse">
      <stop stop-color="#183555"/>
      <stop offset="1" stop-color="#091729"/>
    </linearGradient>
    <linearGradient id="crossB" x1="382" y1="340" x2="646" y2="670" gradientUnits="userSpaceOnUse">
      <stop stop-color="#E9FBFF"/>
      <stop offset="0.48" stop-color="#A8F5EC"/>
      <stop offset="1" stop-color="#67D8C8"/>
    </linearGradient>
    <linearGradient id="flowB" x1="294" y1="696" x2="752" y2="358" gradientUnits="userSpaceOnUse">
      <stop stop-color="#F3D07A"/>
      <stop offset="0.52" stop-color="#FFBE55"/>
      <stop offset="1" stop-color="#FFE2A2"/>
    </linearGradient>
    <filter id="shadowB" x="216" y="168" width="592" height="688" filterUnits="userSpaceOnUse" color-interpolation-filters="sRGB">
      <feFlood flood-opacity="0" result="BackgroundImageFix"/>
      <feColorMatrix in="SourceAlpha" type="matrix" values="0 0 0 0 0 0 0 0 0 0 0 0 0 0 0 0 0 0 127 0" result="hardAlpha"/>
      <feOffset dy="22"/>
      <feGaussianBlur stdDeviation="28"/>
      <feColorMatrix type="matrix" values="0 0 0 0 0.019 0 0 0 0 0.047 0 0 0 0 0.08 0 0 0 0.4 0"/>
      <feBlend mode="normal" in2="BackgroundImageFix" result="effect1_dropShadow_0_1"/>
      <feBlend mode="normal" in="SourceGraphic" in2="effect1_dropShadow_0_1" result="shape"/>
    </filter>
  </defs>

  <rect x="72" y="72" width="880" height="880" rx="220" fill="url(#bgB)"/>
  <rect x="72" y="72" width="880" height="880" rx="220" fill="url(#spotB)"/>
  <rect x="98" y="98" width="828" height="828" rx="194" stroke="white" stroke-opacity="0.08" stroke-width="2"/>

  <g filter="url(#shadowB)">
    <rect x="294" y="230" width="436" height="564" rx="136" fill="url(#tileB)"/>
    <rect x="294" y="230" width="436" height="564" rx="136" stroke="white" stroke-opacity="0.08" stroke-width="2"/>
    <rect x="463" y="332" width="98" height="360" rx="49" fill="url(#crossB)"/>
    <rect x="380" y="415" width="264" height="98" rx="49" fill="url(#crossB)"/>
    <path d="M333 662C396.605 717.014 477.788 748 566.204 748C631.994 748 695.538 730.847 749 699.24" stroke="url(#flowB)" stroke-width="36" stroke-linecap="round"/>
    <path d="M676 319C708.266 346.309 734 381.641 751 422.126" stroke="url(#flowB)" stroke-width="28" stroke-linecap="round"/>
    <circle cx="751" cy="422" r="22" fill="#FFD782"/>
  </g>
</svg>
